#!OML:ASF X:\für Bonn\!DataBase\2005_08_12_Daniel\c3d\Daniel.ASF
:FULLY-SPECIFIED
:DEGREES
113
root 4.54284 16.9998 -2.87556 -122.994 -85.831 112.264
lowerback 20.1222 -4.12789 -1.51542
upperback 8.2848 -6.64419 -6.08385
thorax -2.81205 -3.53979 -4.13357
lowerneck 13.5737 10.8776 -9.1926
upperneck 7.99961 12.4716 -0.600312
head -0.198238 5.69915 0.728419
rclavicle 3.69739e-014 2.70347e-014
rhumerus -50.4394 -17.5048 -66.698
rradius 18.3257
rwrist 44.9418
rhand -16.2072 21.5516
rfingers 7.12502
rthumb 10.0002 -8.19081
lclavicle 3.69739e-014 2.70347e-014
lhumerus -24.9883 -13.2418 81.1229
lradius 131.416
lwrist 13.0267
lhand -19.7777 -24.9588
lfingers 7.12502
lthumb 6.55447 4.91972
rfemur -12.412 2.17533 20.7708
rtibia 44.5103
rfoot -29.9418 -16.5451
rtoes 0.6971
lfemur -14.0889 -10.3357 -17.4604
ltibia 69.3003
lfoot -4.64456 11.0997
ltoes -14.9522
114
root 4.5455 17.0062 -2.86561 -122.974 -85.7668 112.606
lowerback 19.7894 -4.25405 -1.63196
upperback 8.08069 -6.80071 -6.03689
thorax -2.85431 -3.61056 -3.99495
lowerneck 13.5293 10.8739 -9.0647
upperneck 7.33704 12.5094 -0.809155
head -0.386343 5.76242 0.626618
rclavicle -4.57205e-014 -1.74931e-014
rhumerus -50.4238 -18.1976 -66.5998
rradius 18.2614
rwrist 45.1732
rhand -16.6714 21.9102
rfingers 7.12502
rthumb 9.55236 -7.8533
lclavicle -4.57205e-014 -1.74931e-014
lhumerus -24.9714 -13.1586 81.1731
lradius 131.436
lwrist 12.8924
lhand -19.8447 -25.2011
lfingers 7.12502
lthumb 6.48971 4.67942
rfemur -12.9036 2.08513 20.6333
rtibia 44.6133
rfoot -29.8624 -16.3592
rtoes 0.748732
lfemur -13.322 -9.68892 -17.4534
ltibia 67.9313
lfoot -6.25846 11.3102
ltoes -18.2706
115
root 4.54695 17.0124 -2.85497 -122.954 -85.7012 112.93
lowerback 19.4771 -4.38745 -1.76522
upperback 7.86767 -6.96909 -5.96811
thorax -2.91082 -3.68696 -3.82054
lowerneck 13.4662 10.8821 -8.98203
upperneck 6.69819 12.5555 -1.01606
head -0.567406 5.82689 0.533064
rclavicle -4.69132e-014 -3.97569e-014
rhumerus -50.3918 -18.8212 -66.4909
rradius 18.1655
rwrist 45.4282
rhand -17.1382 22.1881
rfingers 7.12502
rthumb 9.10199 -7.59552
lclavicle -4.69132e-014 -3.97569e-014
lhumerus -24.9887 -13.0413 81.2925
lradius 131.449
lwrist 12.7717
lhand -19.9335 -25.373
lfingers 7.12502
lthumb 6.40401 4.51018
rfemur -13.3668 1.95637 20.4866
rtibia 44.7143
rfoot -29.7589 -16.1374
rtoes 0.815973
lfemur -12.5857 -9.01963 -17.4471
ltibia 66.6016
lfoot -7.82025 11.6449
ltoes -21.56
116
root 4.5476 17.0169 -2.84328 -122.992 -85.6235 113.327
lowerback 19.1225 -4.52381 -1.90801
upperback 7.66298 -7.1406 -5.89615
thorax -2.93299 -3.7652 -3.6423
lowerneck 13.3691 10.8869 -8.84276
upperneck 6.0946 12.6073 -1.26706
head -0.724692 5.89409 0.419634
rclavicle 3.45885e-014 -1.11319e-014
rhumerus -50.3671 -19.4937 -66.3394
rradius 18.0705
rwrist 45.8752
rhand -17.5539 22.4529
rfingers 7.12502
rthumb 8.70087 -7.34778
lclavicle 3.45885e-014 -1.11319e-014
lhumerus -25.0053 -12.8979 81.3843
lradius 131.483
lwrist 12.6944
lhand -20.014 -25.5515
lfingers 7.12502
lthumb 6.32628 4.334
rfemur -13.8705 1.79903 20.3237
rtibia 44.8498
rfoot -29.6465 -15.8841
rtoes 0.869163
lfemur -11.8927 -8.34152 -17.4436
ltibia 65.2928
lfoot -9.28407 12.0566
ltoes -24.2748
117
root 4.5473 17.0186 -2.8305 -123.183 -85.5363 113.85
lowerback 18.7917 -4.66117 -2.0555
upperback 7.45521 -7.31518 -5.81639
thorax -2.96697 -3.84483 -3.45236
lowerneck 13.2869 10.9042 -8.72757
upperneck 5.49967 12.6663 -1.51185
head -0.88416 5.96322 0.31036
rclavicle 2.78299e-015 -1.59028e-014
rhumerus -50.3381 -20.0399 -66.2564
rradius 17.9826
rwrist 46.1977
rhand -17.8032 22.7014
rfingers 7.12502
rthumb 8.46028 -7.10909
lclavicle 2.78299e-015 -1.59028e-014
lhumerus -25.0627 -12.7429 81.5312
lradius 131.53
lwrist 12.5288
lhand -20.1098 -25.5847
lfingers 7.12502
lthumb 6.23385 4.30358
rfemur -14.3633 1.59647 20.1476
rtibia 45.025
rfoot -29.5534 -15.5809
rtoes 0.8354
lfemur -11.1916 -7.68916 -17.4401
ltibia 64.0051
lfoot -10.6714 12.5226
ltoes -26.1331
118
root 4.54524 17.0171 -2.81639 -123.576 -85.4307 114.569
lowerback 18.4385 -4.79353 -2.21
upperback 7.25452 -7.48304 -5.73227
thorax -2.97745 -3.92147 -3.25973
lowerneck 13.1771 10.911 -8.5557
upperneck 4.9493 12.7198 -1.82041
head -1.01563 6.029 0.175989
rclavicle -7.59357e-014 -5.40694e-014
rhumerus -50.3309 -20.9478 -65.8072
rradius 17.7075
rwrist 47.0497
rhand -17.9811 23
rfingers 7.12502
rthumb 8.28855 -6.8174
lclavicle -7.59357e-014 -5.40694e-014
lhumerus -25.1508 -12.5912 81.6933
lradius 131.613
lwrist 12.4023
lhand -20.231 -25.5095
lfingers 7.12502
lthumb 6.11678 4.38221
rfemur -14.8779 1.39352 19.959
rtibia 45.2568
rfoot -29.4634 -15.2481
rtoes 0.865766
lfemur -10.4811 -7.11015 -17.4536
ltibia 62.7179
lfoot -11.9827 13.028
ltoes -27.4799
119
root 4.54156 17.0127 -2.80183 -124.1 -85.3243 115.405
lowerback 18.0696 -4.92406 -2.35484
upperback 7.06381 -7.64579 -5.64631
thorax -2.96742 -3.99586 -3.07568
lowerneck 13.0803 10.9258 -8.37666
upperneck 4.39112 12.7802 -2.12506
head -1.15213 6.09839 0.0399329
rclavicle 1.82882e-014 9.54166e-015
rhumerus -50.323 -21.4728 -65.687
rradius 17.6511
rwrist 47.4734
rhand -18.0675 23.1431
rfingers 7.12502
rthumb 8.2052 -6.67759
lclavicle 1.82882e-014 9.54166e-015
lhumerus -25.2537 -12.4609 81.8716
lradius 131.708
lwrist 12.3283
lhand -20.3708 -25.3605
lfingers 7.12502
lthumb 5.98181 4.53509
rfemur -15.4032 1.19363 19.7753
rtibia 45.5403
rfoot -29.4164 -14.8975
rtoes 0.868569
lfemur -9.76275 -6.60571 -17.465
ltibia 61.444
lfoot -13.2299 13.5104
ltoes -28.4575
120
root 4.53675 17.006 -2.78664 -124.656 -85.1823 116.249
lowerback 17.7275 -5.04729 -2.53556
upperback 6.85604 -7.80583 -5.54958
thorax -2.98094 -4.06856 -2.85985
lowerneck 12.9837 10.9516 -8.24324
upperneck 3.88207 12.8447 -2.41261
head -1.27696 6.16564 -0.0833496
rclavicle -2.5842e-014 1.59028e-014
rhumerus -50.3518 -21.9823 -65.4901
rradius 17.6077
rwrist 47.941
rhand -18.1171 23.2127
rfingers 7.12502
rthumb 8.15736 -6.60982
lclavicle -2.5842e-014 1.59028e-014
lhumerus -25.4214 -12.283 82.1069
lradius 131.789
lwrist 12.1785
lhand -20.5406 -25.1856
lfingers 7.12502
lthumb 5.81793 4.7145
rfemur -15.9307 0.974718 19.5599
rtibia 45.8645
rfoot -29.3497 -14.5305
rtoes 0.81758
lfemur -9.03201 -6.17404 -17.5335
ltibia 60.1908
lfoot -14.4697 13.9941
ltoes -29.1689
121
root 4.53087 16.9971 -2.77153 -125.228 -85.0348 117.099
lowerback 17.3827 -5.17036 -2.72557
upperback 6.65553 -7.96593 -5.441
thorax -2.97982 -4.14153 -2.6294
lowerneck 12.798 10.9789 -8.10429
upperneck 3.45004 12.9222 -2.69721
head -1.36086 6.23557 -0.200151
rclavicle -9.0447e-014 -9.54166e-015
rhumerus -50.3502 -22.3529 -65.3655
rradius 17.6067
rwrist 48.2709
rhand -18.0554 23.2674
rfingers 7.12502
rthumb 8.21691 -6.55283
lclavicle -9.0447e-014 -9.54166e-015
lhumerus -25.5593 -12.0326 82.3562
lradius 131.813
lwrist 12.0247
lhand -20.6191 -25.0406
lfingers 7.12502
lthumb 5.7421 4.86157
rfemur -16.458 0.759145 19.3428
rtibia 46.2085
rfoot -29.2987 -14.1614
rtoes 0.809921
lfemur -8.30874 -5.8562 -17.6308
ltibia 58.9783
lfoot -15.7553 14.4351
ltoes -29.5087
122
root 4.52413 16.9886 -2.75739 -125.806 -84.8828 117.934
lowerback 17.0815 -5.28786 -2.92257
upperback 6.42321 -8.12065 -5.31241
thorax -3.02868 -4.20998 -2.3712
lowerneck 12.6322 11.0104 -7.9661
upperneck 3.072 12.9991 -2.99368
head -1.42898 6.30194 -0.319737
rclavicle 4.90998e-014 3.18055e-015
rhumerus -50.4101 -22.7754 -65.0892
rradius 17.5777
rwrist 48.704
rhand -17.839 23.3839
rfingers 7.12502
rthumb 8.42576 -6.42802
lclavicle 4.90998e-014 3.18055e-015
lhumerus -25.7488 -11.7359 82.6661
lradius 131.798
lwrist 11.8723
lhand -20.6238 -24.9039
lfingers 7.12502
lthumb 5.73757 4.99844
rfemur -16.9615 0.532572 19.1335
rtibia 46.5435
rfoot -29.2229 -13.7969
rtoes 0.727035
lfemur -7.59278 -5.63845 -17.7623
ltibia 57.818
lfoot -17.0605 14.8194
ltoes -29.7716
123
root 4.51541 16.982 -2.74384 -126.465 -84.7235 118.849
lowerback 16.7595 -5.40157 -3.10149
upperback 6.19656 -8.26709 -5.19629
thorax -3.06221 -4.27439 -2.14182
lowerneck 12.3492 11.0441 -7.80824
upperneck 2.8464 13.0981 -3.25141
head -1.42721 6.37094 -0.419225
rclavicle -5.52621e-014 -3.97569e-014
rhumerus -50.4998 -23.2946 -64.7138
rradius 17.5112
rwrist 49.2258
rhand -17.6371 23.5969
rfingers 7.12502
rthumb 8.62054 -6.20708
lclavicle -5.52621e-014 -3.97569e-014
lhumerus -25.9455 -11.452 82.9298
lradius 131.8
lwrist 11.747
lhand -20.6731 -24.7327
lfingers 7.12502
lthumb 5.68994 5.17087
rfemur -17.4398 0.310035 18.9295
rtibia 46.8496
rfoot -29.1688 -13.4389
rtoes 0.539363
lfemur -6.90845 -5.55573 -17.943
ltibia 56.7259
lfoot -18.3829 15.1446
ltoes -29.8426
124
root 4.50528 16.9764 -2.73186 -127.481 -84.5974 120.092
lowerback 16.4617 -5.51489 -3.23742
upperback 5.96499 -8.40514 -5.04953
thorax -3.1125 -4.33342 -1.9045
lowerneck 12.0511 11.0955 -7.69398
upperneck 2.67267 13.2144 -3.5004
head -1.40895 6.44444 -0.507344
rclavicle -4.83047e-014 -1.82882e-014
rhumerus -50.672 -23.9907 -64.0466
rradius 17.4164
rwrist 50.131
rhand -17.545 23.8816
rfingers 7.12502
rthumb 8.70942 -5.91871
lclavicle -4.83047e-014 -1.82882e-014
lhumerus -26.2022 -11.1651 83.2405
lradius 131.797
lwrist 11.6133
lhand -20.717 -24.5756
lfingers 7.12502
lthumb 5.64762 5.32916
rfemur -17.8578 0.119206 18.7898
rtibia 47.1198
rfoot -29.1114 -13.0937
rtoes 0.431659
lfemur -6.21284 -5.63487 -18.1279
ltibia 55.7006
lfoot -19.7447 15.4503
ltoes -29.867
125
root 4.49324 16.9722 -2.72161 -128.385 -84.4595 121.225
lowerback 16.127 -5.62387 -3.39342
upperback 5.75389 -8.53785 -4.89756
thorax -3.11563 -4.39112 -1.65908
lowerneck 11.6688 11.1341 -7.55858
upperneck 2.57193 13.3273 -3.76968
head -1.34837 6.51262 -0.59581
rclavicle 1.78906e-014 -5.56597e-015
rhumerus -50.8264 -24.6287 -63.3891
rradius 17.3539
rwrist 50.9954
rhand -17.6641 24.1223
rfingers 7.12502
rthumb 8.59452 -5.68272
lclavicle 1.78906e-014 -5.56597e-015
lhumerus -26.4129 -10.8733 83.5059
lradius 131.788
lwrist 11.5483
lhand -20.7664 -24.3849
lfingers 7.12502
lthumb 5.59986 5.52107
rfemur -18.2578 -0.0729267 18.6514
rtibia 47.3656
rfoot -29.0433 -12.7834
rtoes 0.293238
lfemur -5.55569 -5.82089 -18.3612
ltibia 54.7405
lfoot -21.0585 15.7421
ltoes -29.7842
126
root 4.48002 16.9661 -2.71155 -129.554 -84.3509 122.591
lowerback 15.8111 -5.7224 -3.47124
upperback 5.54899 -8.64607 -4.74693
thorax -3.1314 -4.43621 -1.46173
lowerneck 11.229 11.1626 -7.41094
upperneck 2.57105 13.4386 -3.98424
head -1.24775 6.57359 -0.661006
rclavicle 9.54166e-015 -2.54444e-014
rhumerus -50.9702 -25.1506 -62.8476
rradius 17.2813
rwrist 51.4016
rhand -17.9794 24.3459
rfingers 7.12502
rthumb 8.29018 -5.47139
lclavicle 9.54166e-015 -2.54444e-014
lhumerus -26.6576 -10.6469 83.7629
lradius 131.796
lwrist 11.4634
lhand -20.832 -24.2273
lfingers 7.12502
lthumb 5.53657 5.68035
rfemur -18.6122 -0.273158 18.5597
rtibia 47.6015
rfoot -28.981 -12.4373
rtoes 0.17642
lfemur -4.90748 -6.09122 -18.5872
ltibia 53.837
lfoot -22.2972 16.0629
ltoes -29.6971
